<?xml version="1.0" encoding="UTF-8" standalone="no"?>
<svg
   xmlns:dc="http://purl.org/dc/elements/1.1/"
   xmlns:cc="http://creativecommons.org/ns#"
   xmlns:rdf="http://www.w3.org/1999/02/22-rdf-syntax-ns#"
   xmlns:svg="http://www.w3.org/2000/svg"
   xmlns="http://www.w3.org/2000/svg"
   xmlns:sodipodi="http://sodipodi.sourceforge.net/DTD/sodipodi-0.dtd"
   xmlns:inkscape="http://www.inkscape.org/namespaces/inkscape"
   width="210mm"
   height="297mm"
   viewBox="0 0 210 297"
   version="1.1"
   id="svg77845"
   inkscape:version="1.0 (4035a4fb49, 2020-05-01)"
   sodipodi:docname="Horseshoe Crab SVG.svg">
  <metadata
     id="metadata8">
    <rdf:RDF>
      <cc:Work
         rdf:about="">
        <dc:format>image/svg+xml</dc:format>
        <dc:type
           rdf:resource="http://purl.org/dc/dcmitype/StillImage" />
        <dc:title></dc:title>
      </cc:Work>
    </rdf:RDF>
  </metadata>
  <sodipodi:namedview
     id="namedview77847"
     pagecolor="#ffffff"
     bordercolor="#666666"
     borderopacity="1.0"
     inkscape:pageshadow="2"
     inkscape:pageopacity="0.0"
     inkscape:pagecheckerboard="0"
     inkscape:document-units="mm"
     showgrid="false"
     inkscape:zoom="2.2583979"
     inkscape:cx="386.4953"
     inkscape:cy="-36.541664"
     inkscape:window-width="1920"
     inkscape:window-height="1018"
     inkscape:window-x="1912"
     inkscape:window-y="-8"
     inkscape:window-maximized="1"
     inkscape:current-layer="layer1"
     inkscape:snap-global="true"
     inkscape:lockguides="true"
     showguides="true"
     inkscape:guide-bbox="true"
     inkscape:snap-bbox="true"
     inkscape:bbox-paths="true"
     inkscape:snap-bbox-midpoints="true"
     inkscape:snap-bbox-edge-midpoints="true"
     inkscape:bbox-nodes="true"
     inkscape:object-paths="true"
     inkscape:snap-intersection-paths="true"
     inkscape:snap-center="true"
     inkscape:snap-object-midpoints="true"
     inkscape:snap-page="true"
     inkscape:snap-text-baseline="true"
     inkscape:snap-midpoints="true"
     inkscape:snap-smooth-nodes="true"
     inkscape:document-rotation="0" />
  <defs
     id="defs77842">
    <inkscape:path-effect
       effect="lattice2"
       gridpoint0="-54.457452,386.12583"
       gridpoint1="-43.311942,387.03763"
       gridpoint2="-52.474285,399.17303"
       gridpoint3="-43.311942,399.17303"
       gridpoint4="-50.1837,387.03763"
       gridpoint5="-45.602528,387.03763"
       gridpoint6="-50.1837,399.17303"
       gridpoint7="-45.602528,399.17303"
       gridpoint8x9="-47.893114,387.03763"
       gridpoint10x11="-47.893114,399.17303"
       gridpoint12="-52.474285,390.07148"
       gridpoint13="-43.311942,390.07148"
       gridpoint14="-52.474285,396.13918"
       gridpoint15="-45.773804,394.17881"
       gridpoint16="-50.1837,390.07148"
       gridpoint17="-45.602528,390.07148"
       gridpoint18="-50.1837,396.13918"
       gridpoint19="-45.602528,396.13918"
       gridpoint20x21="-47.893114,390.07148"
       gridpoint22x23="-47.893114,396.13918"
       gridpoint24x26="-52.474285,393.10533"
       gridpoint25x27="-43.311942,393.10533"
       gridpoint28x30="-50.1837,393.10533"
       gridpoint29x31="-45.602528,393.10533"
       gridpoint32x33x34x35="-47.893114,393.10533"
       id="path-effect85242"
       is_visible="true"
       lpeversion="1"
       horizontal_mirror="false"
       vertical_mirror="false"
       perimetral="false"
       live_update="true" />
  </defs>
  <g
     inkscape:label="Layer 1"
     inkscape:groupmode="layer"
     id="layer1">
    <path
       id="path19870"
       style="opacity:1;fill:#000000;fill-opacity:1;stroke-width:3.4;stroke-linecap:round;stroke-linejoin:round;paint-order:fill markers stroke"
       d="m 63.505564,-107.47123 c -15.031401,1.81047 -29.4587,4.98639 -43.920591,10.534873 -55.009996,21.105521 -114.220968,70.54498 -96.792017,179.729101 10.260938,64.279996 27.40197,66.833616 34.753417,109.603116 1.905873,11.08781 6.201754,15.22349 7.180977,9.42009 0.958506,-5.68068 2.565532,-17.53134 11.346074,-31.16863 9.099391,-14.13251 13.9946591,-21.4245 14.5262335,-28.30369 0.5315744,-6.8792 -0.6824665,-7.81032 3.5238266,-14.95671 3.1049383,-5.27521 5.40538455,-11.27004 6.11848954,-15.48123 1.01814316,-6.01241 0.063791,-6.10896 1.52960916,-6.98666 1.5086277,-0.90289 9.9237002,-1.01214 7.4300555,1.15498 -2.1829183,1.89707 -2.5156054,2.53889 -4.2509016,6.57789 -1.7998016,4.18909 -3.6767822,10.51679 -2.3740268,15.48069 2.8065412,10.69382 1.9330193,8.2373 -3.36671708,17.5142 -5.29976282,9.27679 -7.58182052,13.01988 -10.43709782,21.0044 -0.688631,1.92579 -2.518992,6.0521 -4.540806,9.6857 -1.030869,1.8527 -1.484445,3.95235 -2.039143,5.16507 -0.982054,2.14688 -9.159849,6.51975 -7.039372,6.19807 1.778608,-0.26982 2.598658,-0.68423 0.410316,1.36734 -2.188316,2.0515 -5.570776,4.23916 -3.555868,3.82974 2.188316,-0.44439 3.145737,-0.27342 1.641263,0.95758 -1.504474,1.2309 -6.676337,4.54933 -4.786788,4.23953 2.085736,-0.3419 4.821052,-1.67524 2.495973,0.92347 -2.325106,2.59869 -6.735657,7.28308 -4.410604,5.9154 2.325105,-1.36771 3.790844,-1.44606 1.641263,2.05155 -2.017368,3.2825 -3.212677,5.10604 -2.051553,4.23952 1.173771,-0.87598 3.008604,-1.26486 2.598288,-0.27336 -1.889839,4.5671 -1.880526,7.28271 -0.239263,5.23121 1.641237,-2.0515 6.325526,-13.91627 7.419711,-15.42077 1.075187,-1.47841 5.993685,-11.17936 14.1913763,-14.21204 0.9732963,-0.36012 0.7653602,1.92109 -0.8082223,3.761 -1.370304,1.60229 -4.665028,4.05183 -2.982251,4.06953 0.724773,0.0101 3.6929215,-0.67664 6.528805,-0.58086 l -3.691255,2.81998 c -4.218464,3.2232 -6.338887,5.26814 -4.84931,5.17644 1.489604,-0.092 2.212499,-0.41497 0.16899,1.39991 -2.04351,1.8148 -5.081482,3.6426 -3.38119,3.44011 1.846527,-0.21989 2.609188,0.047 1.226264,1.1162 -1.382897,1.0695 -6.025409,3.84021 -4.440025,3.7238 1.74998,-0.1284 4.154196,-1.17496 1.931669,1.16893 -2.222579,2.34399 -6.409425,6.54677 -4.337737,5.42448 2.071714,-1.12231 3.281944,-1.05095 1.092967,2.20295 -2.054331,3.05372 -3.256942,4.74247 -2.199878,3.99976 1.068599,-0.7506 2.618634,-0.95173 2.161116,-0.0103 -2.107326,4.3416 -1.170119,6.79141 -0.153484,4.55319 0.911622,-2.00679 6.776481,-14.3297 7.856881,-15.7122 1.001633,-1.2817 5.4683554,-9.76945 14.2523632,-13.77384 -0.096996,0.713 -0.2577307,1.48151 -0.5720557,2.38022 -3.8650068,11.05138 -7.0400861,14.52957 -4.3589045,14.17534 0.824865,-0.10887 3.1662687,-0.9806 5.68028661,-1.50738 1.27269873,0.17269 1.55265439,0.22846 -0.71882001,1.41076 -2.7269016,1.41909 -4.7725541,2.41202 -2.846361,2.53111 2.1534702,0.13321 0.9258035,1.09696 -0.728636,2.00503 -1.6031898,0.87972 -5.165381,2.6887 -3.3548373,2.7735 1.9906721,0.093 2.5462177,0.30054 0.1080294,2.66134 -2.5344437,2.45477 -5.0435667,5.81181 -2.9858757,4.67722 2.2047199,-1.2156 1.8553905,-0.48768 -0.234103,3.22202 -1.354059,2.40411 -2.086981,4.81311 -1.040236,4.02611 1.06418,-0.8001 1.317016,-0.30864 0.843359,0.79428 -2.012791,4.68749 -2.808631,8.33586 -0.902282,6.11486 1.069578,-1.24618 2.521585,-4.37956 4.5108548,-8.34678 1.9667273,-3.92229 3.6541868,-6.74862 4.4772262,-7.68892 0.8563239,-0.9783 3.32636806,-4.64162 8.2744467,-8.1933 0.7959725,-0.5714 1.6540427,-1.12374 2.539365,-1.65624 -0.1453885,2.25261 -1.187106,5.47933 -3.581691,10.06554 -5.051716,7.51999 -4.85637409,10.73513 -3.01013807,9.76014 0.65148357,-0.34412 2.85903457,-2.02661 5.06015617,-2.04949 2.2010952,-0.023 2.7698171,0.39026 0.247015,1.53117 -2.5798727,1.1666 -4.509426,1.97551 -2.7440202,2.18281 1.9737123,0.23159 0.7940146,1.05497 -0.7736152,1.8061 -1.5190522,0.72766 -4.8869334,2.21133 -3.22614387,2.38125 1.82599537,0.18695 2.32653417,0.4068 -0.0356658,2.45409 -2.45543913,2.12892 -4.93273293,5.08759 -2.98275373,4.14859 2.0893087,-1.006 1.7316979,-0.35365 -0.3782748,2.95177 -1.3673402,2.1422 -2.1653235,4.31998 -1.1627114,3.64937 1.0193072,-0.68178 1.2264495,-0.2167 0.7348272,0.77361 -2.089097,4.2087 -3.0054285,7.52375 -1.1394545,5.57795 1.0469033,-1.0918 2.540926,-3.89856 4.57181474,-7.44606 2.00786996,-3.50729 3.70358446,-6.02155 4.50823536,-6.84454 0.8371945,-0.85629 3.294962,-4.10075 8.0258704,-7.11583 0.200713,-0.1279 0.430504,-0.24244 0.637699,-0.36796 -0.0517,1.58581 -0.335359,3.52563 -0.963771,5.96191 -2.8313064,10.9764 -1.8406271,12.40327 -0.05633,10.05057 1.202611,-1.5857 6.104705,-7.47837 9.254225,-2.88975 -2.567702,1.1607 -5.339768,1.76776 -3.811137,1.98384 1.193006,0.1687 0.848227,1.18055 0.427857,1.56374 -1.244811,1.13459 -4.922149,3.74616 -3.26853,3.97547 1.347338,0.1869 1.699763,0.95486 -0.514694,2.38435 -2.730315,1.7626 -4.7929533,3.4935 -2.654088,3.16312 1.200309,-0.18532 -0.16555,2.28626 -1.5286038,3.32176 -3.3122658,2.51619 2.5878898,0.16796 -0.3565525,5.58726 -1.1767344,2.16588 -1.6738864,6.80487 3.3455243,-1.99834 3.772799,-6.61699 7.04424,-9.72415 10.611246,-12.24214 0.268473,2.1789 0.441881,4.7734 0.472308,7.94679 0.142716,14.8763 -0.565626,17.3578 1.679998,14.78049 1.136518,-1.30429 4.740064,-5.75619 8.285295,-7.66619 2.489544,-1.3412 -1.342496,2.53891 -0.664051,2.55593 1.359773,0.034 0.881644,0.90794 -0.203094,1.99006 -2.300791,2.29507 -3.642016,4.19253 -1.553898,3.62355 1.171839,-0.31922 0.120623,1.43261 -1.117256,2.61482 -3.008048,2.87301 2.590271,-0.12441 0.274399,5.59189 -0.925459,2.28462 -0.897255,6.95008 3.099567,-2.36212 2.279068,-5.31011 4.499399,-8.57224 6.861069,-11.11094 0.160126,0.7534 0.278765,1.61822 0.341075,2.63033 0.914268,14.85029 6.974734,13.23012 12.130008,17.6449 5.155274,4.41471 8.75866,3.53637 8.768979,9.80922 0.01032,6.273 4.064926,-0.87572 3.930491,-2.63652 -0.134408,-1.76099 -1.757045,-7.51483 1.735826,-12.29744 3.49287,-4.78261 5.246581,-11.57258 11.2386,-13.9573 2.533756,-1.00838 4.692888,-2.07753 6.824901,-3.00085 3.458792,15.14102 5.103839,49.58072 5.893699,118.88113 1.067938,93.69816 3.806243,151.59778 7.252573,161.19438 0.375973,1.04687 0.428652,0.84992 0.735489,0.008 3.483349,-9.55992 6.187229,-67.47846 7.255429,-161.20221 0.78984,-69.3004 2.43491,-103.7401 5.8937,-118.88112 2.13204,0.92331 4.29117,1.99247 6.82493,3.00085 5.99202,2.38471 7.7457,9.17469 11.23857,13.9573 3.49287,4.78261 1.87024,10.53645 1.73583,12.29743 -0.13444,1.76081 3.9202,8.90953 3.93049,2.63655 0.0103,-6.2729 3.6137,-5.39454 8.76898,-9.80924 5.15527,-4.41479 11.21574,-2.79461 12.13001,-17.6449 0.0623,-1.01212 0.18094,-1.87693 0.34107,-2.63033 2.36167,2.5387 4.582,5.80083 6.86107,11.11094 3.99682,9.31219 4.02503,4.64674 3.09957,2.36214 -2.31587,-5.71632 3.28244,-2.71891 0.2744,-5.59191 -1.23788,-1.18221 -2.2891,-2.93405 -1.11726,-2.61483 2.08812,0.56899 0.74689,-1.32844 -1.5539,-3.62355 -1.08474,-1.08211 -1.56287,-1.95606 -0.20309,-1.99006 0.67844,-0.0169 -3.1536,-3.89713 -0.66405,-2.55593 3.54523,1.91 7.14877,6.36191 8.28529,7.6662 2.24563,2.57731 1.53728,0.0958 1.68,-14.78047 0.0304,-3.17331 0.20386,-5.76802 0.47231,-7.94682 3.56703,2.51791 6.83844,5.62515 10.61124,12.24214 5.01941,8.80322 4.52226,4.16423 3.34553,1.99835 -2.94442,-5.4193 2.95571,-3.07107 -0.35655,-5.58726 -1.36306,-1.0355 -2.72892,-3.50708 -1.52861,-3.32177 2.13889,0.33039 0.0762,-1.40051 -2.65409,-3.16312 -2.21445,-1.42949 -1.86203,-2.19744 -0.51469,-2.38434 1.65362,-0.22932 -2.02372,-2.84089 -3.26853,-3.97547 -0.42037,-0.3832 -0.76515,-1.39504 0.42788,-1.56374 1.52863,-0.21598 -1.24343,-0.82315 -3.81113,-1.98385 3.14952,-4.58859 8.05158,1.30405 9.25419,2.88975 1.78433,2.35271 2.77498,0.92583 -0.0563,-10.05056 -0.62841,-2.43629 -0.91204,-4.37611 -0.96374,-5.96191 0.20717,0.12552 0.43696,0.24005 0.63767,0.36795 4.73091,3.01509 7.18868,6.25954 8.02587,7.11584 0.80465,0.82291 2.50039,3.33724 4.50826,6.84453 2.03089,3.54751 3.52492,6.35426 4.57182,7.44607 1.86597,1.94579 0.94962,-1.36925 -1.13948,-5.57795 -0.49162,-0.99031 -0.28448,-1.45539 0.73485,-0.77359 1.00261,0.67059 0.2046,-1.5072 -1.16274,-3.6494 -2.10997,-3.30541 -2.46758,-3.95766 -0.37827,-2.95177 1.94998,0.93911 -0.52731,-2.01967 -2.98275,-4.14859 -2.36223,-2.04729 -1.86164,-2.2671 -0.0357,-2.45408 1.66079,-0.16992 -1.70709,-1.65357 -3.22614,-2.38125 -1.56763,-0.7511 -2.7473,-1.57451 -0.77359,-1.8061 1.7654,-0.2073 -0.16415,-1.01622 -2.74402,-2.18282 -2.5228,-1.14091 -1.95411,-1.55419 0.24699,-1.53117 2.20112,0.0228 4.40869,1.70538 5.06015,2.04949 1.84626,0.97499 2.04158,-2.24015 -3.01014,-9.76013 -2.39458,-4.58621 -3.4363,-7.81294 -3.58169,-10.06555 0.88533,0.5325 1.74342,1.08485 2.53937,1.65624 4.94808,3.55169 7.41812,7.215 8.27444,8.1933 0.82304,0.9403 2.51053,3.76664 4.47726,7.68893 1.98927,3.96721 3.44125,7.10059 4.51083,8.34678 1.90634,2.22099 1.1105,-1.42737 -0.90229,-6.11487 -0.47365,-1.10291 -0.22082,-1.59437 0.84336,-0.79427 1.04675,0.787 0.31383,-1.6219 -1.04023,-4.02612 -2.0895,-3.70969 -2.43883,-4.43761 -0.23411,-3.22201 2.05769,1.13461 -0.4514,-2.22245 -2.98585,-4.67723 -2.43818,-2.36079 -1.88266,-2.56833 0.10801,-2.66134 1.81057,-0.0848 -1.75165,-1.89378 -3.35484,-2.77349 -1.65444,-0.90808 -2.88211,-1.87182 -0.72864,-2.00504 1.9262,-0.11909 -0.11943,-1.11202 -2.84633,-2.53111 -2.27147,-1.18229 -1.99152,-1.23806 -0.71882,-1.41076 2.51402,0.52671 4.85539,1.39859 5.68026,1.50741 2.68118,0.35428 -0.4939,-3.12396 -4.3589,-14.17537 -0.31433,-0.89871 -0.47506,-1.66721 -0.57206,-2.38021 8.78401,4.00439 13.25073,12.49214 14.25236,13.77383 1.0804,1.3825 6.94526,13.70542 7.85688,15.71221 1.01664,2.23821 1.95385,-0.21159 -0.15348,-4.55319 -0.45752,-0.94181 1.09252,-0.74078 2.16112,0.01 1.05706,0.74268 -0.14555,-0.94607 -2.19988,-3.99976 -2.18898,-3.2539 -0.97875,-3.32529 1.09297,-2.20298 2.07168,1.12231 -2.11514,-3.08046 -4.33772,-5.42446 -2.22255,-2.34391 0.18167,-1.29733 1.93165,-1.16893 1.58538,0.11639 -3.05713,-2.6543 -4.44003,-3.72379 -1.38292,-1.06921 -0.62026,-1.33612 1.22629,-1.11623 1.70029,0.20251 -1.33768,-1.62528 -3.38119,-3.44008 -2.04351,-1.81491 -1.32064,-1.49194 0.16897,-1.39992 1.48957,0.0917 -0.63085,-1.95323 -4.84931,-5.17644 l -3.69126,-2.81998 c 2.83591,-0.0958 5.80403,0.59084 6.52881,0.58084 1.68277,-0.0177 -1.61195,-2.46721 -2.98226,-4.0695 -1.57358,-1.83991 -1.78149,-4.12112 -0.80822,-3.76103 8.19772,3.03271 13.11622,12.73366 14.19141,14.21207 1.09415,1.50447 5.77844,13.36926 7.41968,15.42076 1.64126,2.0515 1.65058,-0.66413 -0.23926,-5.23121 -0.41032,-0.9915 1.42451,-0.60264 2.59831,0.27337 1.1611,0.86649 -0.0342,-0.95705 -2.05158,-4.23955 -2.14958,-3.49758 -0.68384,-3.41924 1.64126,-2.05155 2.32508,1.36771 -2.08547,-3.31669 -4.4106,-5.9154 -2.32508,-2.59871 0.41024,-1.26534 2.49597,-0.92345 1.88955,0.3098 -3.28231,-3.00863 -4.78678,-4.23955 -1.50448,-1.231 -0.54706,-1.40194 1.64126,-0.95755 2.01493,0.40949 -1.36755,-1.77824 -3.55587,-3.82974 -2.18834,-2.0516 -1.36829,-1.63727 0.41032,-1.36737 2.12047,0.32161 -6.05732,-4.05116 -7.03937,-6.19807 -0.5547,-1.21269 -1.00828,-3.31235 -2.03915,-5.16506 -2.02181,-3.63358 -3.85217,-7.75992 -4.5408,-9.68571 -2.85528,-7.98449 -5.13734,-11.72761 -10.4371,-21.0044 -5.29974,-9.2769 -6.17326,-6.82038 -3.36672,-17.51417 1.30276,-4.9639 -0.57422,-11.2916 -2.374,-15.48072 -1.73532,-4.039 -2.06798,-4.6808 -4.2509,-6.57789 -2.49365,-2.16709 5.9214,-2.05787 7.43003,-1.15496 1.46582,0.87771 0.51146,0.97425 1.52961,6.98664 0.7131,4.21122 3.01355,10.20604 6.11849,15.48123 4.20629,7.14642 2.99225,8.07762 3.52382,14.95671 0.53158,6.87922 5.42685,14.17121 14.52624,28.30369 8.78054,13.63731 10.38759,25.48795 11.34607,31.16866 0.97922,5.8034 5.2751,1.66769 7.18098,-9.42009 7.35145,-42.7695 24.49248,-45.32315 34.75341,-109.603146 17.42896,-109.1842 -41.78196,-158.623738 -96.79201,-179.729074 -17.89631,-6.86615 -35.74667,-10.03422 -54.73592,-11.6377 -7.1316,-0.60222 -14.42383,-0.99407 -20.35209,-1.0078 -12.950272,-0.03 -25.869696,0.56744 -38.683066,2.11075 z m 37.842456,9.292652 c 5.08287,-0.111384 9.80663,-0.274825 15.36926,-0.389734 11.98375,-0.247553 24.16468,1.075852 33.23028,3.726368 15.29091,4.470479 30.82245,8.473043 44.95435,15.925641 18.79769,9.913197 35.36516,24.431466 47.95573,41.650152 10.50864,14.371505 17.51758,31.1962005 21.28345,48.540193 3.33939,15.379594 4.00799,31.195645 3.01326,46.852443 -1.13813,17.914302 -4.2336,35.700096 -9.03044,53.018985 -3.28745,11.86939 -8.25016,23.21094 -13.42451,34.40255 -4.50543,9.7449 -6.03345,20.81623 -11.46029,30.06172 -0.80333,1.36861 -1.80324,-2.44419 -2.42827,-3.8137 -4.53038,-9.92669 -12.10141,-18.11579 -16.54162,-28.07788 -1.79676,-4.0314 -1.22187,-8.53048 -1.77458,-12.8075 -0.29612,-2.29147 -1.18356,-4.43854 -2.16369,-6.52155 -1.16694,-2.4801 -2.09433,-3.91028 1.6645,-0.7333 1.99673,1.68762 1.67544,4.981 2.57296,7.4068 1.57541,4.2581 3.18837,8.51038 5.31855,12.52998 2.48931,4.69731 5.58096,9.03404 8.43256,13.50873 1.86045,2.91941 3.02088,5.30733 5.18108,1.20303 5.80834,-11.03561 10.20704,-22.7308 14.62857,-34.36742 8.18589,-21.5438 12.20237,-44.495162 13.69631,-67.43877 1.44227,-22.150308 -1.25587,-44.792529 -9.48933,-65.50144 -8.98512,-22.599491 -24.95574,-42.821701 -45.17607,-56.219301 -16.0219,-10.615692 -34.18372,-17.849135 -52.63967,-23.182051 -10.47692,-3.027177 -21.35751,-5.197448 -32.3174,-4.774882 -4.97652,0.191876 -14.51351,1.311593 -19.84039,1.554189 -2.36056,0.1075 -5.098601,0.06972 -7.282974,0.0026 -8.025527,-0.248867 -14.189895,-1.316461 -20.421018,-1.556703 -10.959888,-0.422566 -21.840507,1.747706 -32.317425,4.774909 -18.455957,5.33281 -36.6177771,12.56583 -52.639674,23.181522 -20.220331,13.3976 -36.190951,33.61981 -45.176042,56.2193006 -8.233463,20.7089104 -10.931631,43.3511324 -9.489361,65.5014394 1.493944,22.943608 5.510424,45.894967 13.696315,67.438767 4.421532,11.63662 8.820229,23.33234 14.628574,34.36792 2.160191,4.10433 3.320627,1.71588 5.181071,-1.20353 2.8516,-4.47469 5.943256,-8.81092 8.432562,-13.50823 2.130187,-4.0196 3.74314,-8.27238 5.318548,-12.53048 0.89752,-2.4258 0.576236,-5.7192 2.572967,-7.4068 3.75883,-3.17698 2.831439,-1.7468 1.664494,0.7333 -0.980123,2.08309 -1.867561,4.23058 -2.163683,6.52208 -0.552715,4.27699 0.02222,8.77557 -1.774561,12.80697 -4.440211,9.96209 -12.011263,18.15116 -16.541644,28.07788 -0.625025,1.36948 -1.624938,5.18284 -2.428266,3.81423 -5.426842,-9.24549 -6.954864,-20.31735 -11.460295,-30.06225 -5.17435,-11.19161 -10.137034,-22.53263 -13.424481,-34.40202 -4.796843,-17.318912 -7.892336,-35.104786 -9.030468,-53.019009 -0.994727,-15.656877 -0.326099,-31.472822 3.01326,-46.852416 3.765894,-17.3440192 10.774813,-34.168688 21.283454,-48.540193 C -33.405459,-54.484751 -16.837965,-69.00302 1.9597015,-78.916217 16.091626,-86.368815 31.575546,-90.53804 46.91405,-94.84236 c 13.227528,-3.711934 24.343397,-3.891525 36.172181,-3.662461 6.00854,0.116355 12.59953,0.450323 18.261789,0.326243 z m 62.97128,67.807683 c 11.23106,6.643634 17.90785,19.061615 23.26161,30.77022062 1.05273,2.30229828 4.33817,11.91545738 0.22583,6.21305158 -8.58452,-11.903895 -19.77298,-23.9497122 -34.97511,-26.5219122 -5.49739,-0.930275 -14.10161,-5.510213 -16.73593,-1.604037 -4.20172,6.230303 5.29457,11.013599 8.08064,15.955116 4.69844,8.3336076 1.77043,17.764469 -4.09742,24.581961 -3.94216,4.580096 -0.10504,11.927125 -2.52492,17.197916 -2.85461,6.217709 1.34562,12.943047 0.95965,19.36885 -0.72179,3.622595 -2.70468,9.090051 0.40772,10.498058 3.03739,1.374087 3.01532,1.189698 1.495,4.962498 -1.83203,4.546388 3.15248,10.317136 3.89692,16.26825 0.543,4.340992 2.2448,11.110701 -3.67369,11.417908 -6.92968,0.359701 -13.86449,0.623121 -20.76979,1.320325 -6.34114,0.64011 -12.17986,3.02215 -0.18241,-3.537242 6.02242,-3.292819 14.51597,-1.495848 19.02675,-6.819741 3.72528,-4.396899 0.14081,-9.157679 -2.37609,-13.630169 -0.43834,-0.778907 -0.91893,-0.72816 -1.81489,-0.367956 -3.35129,1.347205 -2.84056,7.503372 -7.54734,9.900179 -3.39479,1.728602 -10.77264,4.887939 -12.96768,4.07625 -0.83704,-0.309615 -0.14412,-0.55417 0.45061,-0.855768 5.11421,-2.592996 4.6228,-9.196017 1.13998,-13.233294 -0.4613,-0.534723 -0.41886,-0.585126 0.24339,-1.029917 5.84748,-3.926999 14.53518,-4.247171 17.51574,-11.66958 1.26606,-3.152802 1.52535,-16.00118 -2.49907,-9.866577 -3.55328,5.416285 -8.81327,5.692325 -14.28337,6.433714 -3.28293,0.445003 -6.2624,-2.490602 -0.96687,-4.105698 6.33127,-1.931088 16.63697,-3.111051 17.61599,-10.506843 0.97401,-7.357903 -8.37507,-2.335 -12.42095,-0.733292 -3.41778,1.353105 -10.33878,-1.727491 -3.45768,-3.39979 7.3506,-1.786493 10.54095,-10.168229 9.31365,-17.220142 -1.07265,-6.163098 1.16927,-14.2031768 -6.11227,-17.7575628 -6.09735,-2.9764037 -15.72032,-3.9122085 -13.91388,5.9742918 1.65838,9.075922 -1.6959,18.313108 -2.43605,27.462427 -0.54692,6.761083 -1.30841,12.290213 -1.49447,19.935216 -0.15298,6.28478 0.56187,12.075239 -0.27956,18.181822 -0.60957,4.423886 -1.63385,7.514802 -2.764524,8.916644 -0.901118,1.117282 -1.715082,0.929216 -2.486951,-0.03971 C 96.045851,84.751084 95.042313,81.67017 94.438296,77.286606 93.596868,71.180023 94.311693,65.389564 94.158711,59.104784 93.972656,51.459781 93.211185,45.930651 92.664238,39.169568 91.924093,30.02025 88.569838,20.783063 90.228219,11.707141 92.034662,1.8206408 82.411687,2.7564456 76.314338,5.7328493 69.032793,9.2872353 71.274687,17.327314 70.202039,23.490412 c -1.227296,7.051887 1.963076,15.433649 9.313651,17.220142 6.881125,1.672299 -0.0399,4.752895 -3.457681,3.39979 -4.045876,-1.601708 -13.394954,-6.624611 -12.420943,0.733293 0.979011,7.395792 11.284717,8.575754 17.615984,10.506842 5.295556,1.615096 2.316057,4.550701 -0.966867,4.105698 -5.470101,-0.741415 -10.730097,-1.017429 -14.283372,-6.433714 -4.024418,-6.134603 -3.765127,6.713775 -2.499069,9.866577 2.980558,7.422409 11.668257,7.742581 17.515734,11.66958 0.662252,0.444791 0.704691,0.495194 0.24339,1.029891 -3.482816,4.037224 -3.9742,10.640403 1.139984,13.23332 0.594757,0.301599 1.287648,0.546153 0.450612,0.855742 -2.195036,0.811715 -9.57289,-2.347622 -12.967679,-4.076224 -4.706779,-2.396807 -4.196027,-8.552974 -7.547345,-9.900179 -0.895959,-0.360204 -1.376548,-0.410951 -1.814883,0.367956 -2.516902,4.47249 -6.101345,9.23327 -2.376064,13.630169 4.510775,5.323893 13.004323,3.527028 19.026743,6.819741 11.997425,6.559394 6.158706,4.177344 -0.182431,3.537244 -6.905307,-0.697206 -13.840116,-0.960625 -20.769791,-1.320326 -5.918491,-0.307208 -4.216691,-7.076917 -3.673687,-11.417909 0.744432,-5.951114 5.72897,-11.721888 3.896942,-16.26825 -1.520322,-3.772826 -1.542388,-3.588411 1.495002,-4.962498 3.1124,-1.408007 1.129506,-6.875463 0.407723,-10.498058 C 57.961991,49.163515 62.162225,42.438071 59.307609,36.22039 56.88773,30.949572 60.72485,23.602569 56.782717,19.022473 50.914841,12.204954 47.986829,2.7740933 52.685274,-5.5594878 c 2.786062,-4.9415172 12.282355,-9.7248132 8.080639,-15.9551152 -2.634324,-3.906176 -11.238547,0.673735 -16.735927,1.604036 -15.202138,2.5722 -26.3906,14.6180173 -34.9751121,26.5219123 C 4.9425346,12.313751 8.2279717,2.7005921 9.2806958,0.39829375 14.63446,-11.310312 21.257087,-23.820659 32.542333,-30.371927 c 21.708295,-12.601998 44.762658,-12.417478 67.530137,-12.684972 21.64897,-0.254344 46.05255,1.923362 64.24683,12.686004 z M -7.5983749,22.038907 c 0.3135397,1.653401 -2.2411307,4.345998 -3.0091291,6.53595 -0.390911,1.114684 -0.0834,2.757991 1.2118182,3.042179 1.2952148,0.283898 7.8128811,-2.189585 10.4939305,15.4187 2.6810758,17.608312 -5.7128039,44.132658 -4.5263329,44.469631 1.186471,0.337106 6.6314372,-3.067208 7.1545978,-1.384908 0.5231607,1.682406 1.6933598,2.007526 2.8163573,2.778125 1.3538729,0.928899 4.2869381,0.704929 5.3061391,-3.611668 1.019228,-4.316598 -0.02487,-12.982152 -2.9579621,-16.96175 -2.9330649,-3.979704 -1.3777383,-12.943046 0.508,-17.358651 1.8857121,-4.415578 2.3183321,-14.688528 4.1036081,-9.584928 1.785276,5.103389 1.50032,11.591502 2.142516,12.247298 0.642197,0.655902 5.199354,-0.594413 6.255941,1.796812 1.056614,2.391278 1.557417,6.183471 -0.757581,10.270172 -2.314999,4.08649 -6.289067,11.616955 0.04186,16.551963 6.330817,4.935194 15.488787,8.49421 19.179195,7.343219 3.690409,-1.151202 7.235481,-9.011417 7.407302,-4.790413 0.17182,4.221004 -0.284189,6.379527 -4.403857,7.201614 -4.119695,0.821902 -15.815945,1.997393 -19.936778,2.927482 -4.120806,0.930196 -11.491542,2.258456 -11.690746,0.633545 -0.199232,-1.624991 5.533257,-1.456214 5.568632,-4.809516 0.02223,-2.099892 -0.101917,-5.199089 -0.902785,-6.633184 -1.140036,-2.041604 -1.75342,-0.546444 -1.94818,0.929667 -0.329723,2.498487 -1.523127,7.223204 -5.7826007,7.738004 -5.8212831,0.7035 -12.579879,-3.140128 -14.9391421,2.954866 -2.3592631,6.094814 -3.0909683,11.451354 -8.1008012,13.829634 -8.38618,3.981 -2.707031,2.45277 1.39372,-9.82212 2.498725,-7.479508 10.6642688,-39.207547 10.2763632,-45.943442 -0.3879056,-6.735921 1.1060642,-17.669801 -2.0644643,-19.650498 -3.170555,-1.980803 -5.4194599,-4.113583 -5.1206135,-1.676374 0.2988204,2.437289 0.7355946,7.148089 -3.5388024,2.126483 -4.27437,-5.021607 -3.27141,-7.770097 -2.804477,-11.010688 0.344222,-2.388955 0.971828,-5.127625 2.526707,-6.387586 1.524997,-1.235746 5.7870056,-0.807305 6.0975651,0.830382 z M 213.08426,27.596114 c 0.47149,3.239934 1.46992,5.989081 -2.80448,11.010688 -4.27437,5.021606 -3.83762,0.310806 -3.5388,-2.126483 0.29885,-2.437209 -1.95006,-0.304429 -5.12061,1.676374 -3.17053,1.980697 -1.67656,12.914577 -2.06447,19.650498 -0.3879,6.735895 7.77764,38.463828 10.27637,45.943439 4.10075,12.27479 9.7799,13.80312 1.39372,9.82212 -5.00984,-2.37828 -5.74154,-7.73482 -8.1008,-13.829631 -2.35927,-6.094994 -9.11784,-2.251366 -14.93915,-2.954866 -4.25947,-0.5148 -5.45285,-5.239517 -5.78257,-7.738004 -0.19476,-1.476111 -0.80817,-2.971271 -1.94821,-0.929667 -0.80086,1.434095 -0.92498,4.533292 -0.90278,6.633184 0.0354,3.353302 5.76786,3.184525 5.56863,4.809516 -0.19918,1.624908 -7.56994,0.296651 -11.69075,-0.633545 -4.12083,-0.930089 -15.81708,-2.10558 -19.93677,-2.927482 -4.11967,-0.822087 -4.57568,-2.98061 -4.40386,-7.201614 0.17182,-4.221004 3.71689,3.639211 7.4073,4.790413 3.69041,1.150991 12.84838,-2.408131 19.1792,-7.343219 6.33087,-4.935114 2.35685,-12.465473 0.0418,-16.551963 -2.315,-4.086701 -1.81419,-7.878894 -0.75758,-10.270172 1.05659,-2.391225 5.61377,-1.14091 6.25594,-1.796812 0.6422,-0.655796 0.35724,-7.143909 2.14252,-12.247298 1.78527,-5.1036 2.21792,5.169429 4.10363,9.584928 1.88574,4.415605 3.44104,13.378947 0.50798,17.358651 -2.93307,3.979598 -3.97719,12.645152 -2.95797,16.96175 1.01921,4.316597 3.95227,4.540567 5.30614,3.611668 1.12297,-0.770599 2.2932,-1.095719 2.81636,-2.778125 0.52316,-1.6823 5.96813,1.722014 7.1546,1.384908 1.18647,-0.336999 -7.20741,-26.861319 -4.52633,-44.469631 2.68105,-17.608285 9.19871,-15.134802 10.49393,-15.4187 1.29521,-0.284188 1.60272,-1.927492 1.21181,-3.042179 -0.74316,-2.119127 -3.51626,-4.7734 -3.02774,-6.371829 0.49465,-1.618481 2.70764,-2.149566 4.58769,-1.613276 3.07987,0.878542 3.66187,4.303219 4.05525,7.006359 z M 47.034462,106.89049 c 1.873064,-0.009 3.759729,0.0331 5.678725,0.13798 7.675986,0.4196 11.295248,2.12664 14.328325,3.24734 7.252097,2.67959 14.420294,5.59096 20.177072,8.39536 5.756751,2.8044 6.976957,3.57775 5.326803,4.36975 -1.080267,0.5184 -2.282851,0.29803 -3.419951,0.35243 -0.607033,0.029 -1.257194,0.39222 -1.291405,1.05161 -0.05339,1.03021 0.44712,1.98104 -0.0558,2.39884 -0.502947,0.41776 -1.612265,-0.59875 -2.732141,-1.57046 -3.193415,-2.77079 -6.681417,-5.2456 -10.54301,-6.98201 -0.913501,-0.41068 -3.786585,-0.029 -3.72536,0.81754 0.0612,0.84749 1.463146,2.01475 2.471155,3.51555 0.693791,1.0329 2.755768,2.70327 -0.08731,5.67769 -2.420065,2.5319 -2.001388,4.96176 -1.590622,6.65385 0.368088,1.51619 1.674098,2.51338 2.833423,3.43029 2.522563,1.99496 9.410303,1.86889 10.622094,7.78349 1.211792,5.91471 -7.987056,4.11652 -7.866697,10.42882 0.161634,8.47809 9.543944,4.30053 10.021093,15.66314 0.194337,4.62788 -7.880879,7.61315 -6.113832,12.77853 2.141087,6.25891 9.374293,6.19342 9.246446,13.06071 -0.0694,3.72919 -3.924406,4.51636 -5.030708,8.25635 -2.210329,7.47249 5.011473,5.46377 5.51905,13.09378 0.507603,7.62989 -6.336824,9.0692 -4.585256,13.65911 1.778714,4.6609 7.82111,4.92556 6.029616,10.83138 -1.630918,5.37649 1.002189,7.56433 -4.167187,6.60061 -5.16935,-0.96369 -6.643132,-3.25318 -7.74835,-5.59138 -0.981286,-2.076 -1.7195,-4.25911 -1.972495,-6.54482 -0.40857,-3.69141 -0.135308,-7.44008 -0.624258,-11.13628 -0.269134,-2.03436 -0.717841,-4.17711 -2.070682,-5.79602 -0.661035,-0.791 -1.611259,-1.22314 -2.562119,-1.56993 -1.15443,-0.42119 -2.440808,-1.00362 -2.983786,-2.18022 -0.547184,-1.18552 -0.353271,-2.42826 -0.342106,-3.66696 0.02117,-2.34001 -0.109379,-2.55987 1.242298,-1.38597 1.44399,1.2541 3.069299,2.44097 4.996074,3.37756 0.52324,0.25432 1.370489,0.16603 1.206659,-0.29868 -0.352002,-0.99881 -1.170675,-1.93022 -1.698096,-2.90783 -0.713184,-1.32199 -0.956363,-2.64506 -0.668681,-3.93827 0.168698,-0.7584 -0.150257,-1.51188 -0.608224,-2.23139 -1.077331,-1.6927 -1.150012,-3.49866 -1.25058,-5.17488 -0.100568,-1.67629 -0.660929,-1.18552 -1.057301,-0.81132 -0.97581,0.9212 -1.645788,1.96753 -2.193661,3.06443 -0.74123,1.48419 -0.631904,1.049 -0.82632,-0.0372 -0.429948,-2.40268 -0.768694,-4.81814 -1.136862,-7.23003 -0.292232,-1.91442 -0.591502,-1.79941 1.216978,-0.46252 1.197451,0.88522 2.711027,1.63036 3.826642,1.67277 1.03587,0.039 -0.05157,-1.95146 -0.837168,-3.10885 -0.785998,-1.15811 -0.176424,-2.48391 -0.448548,-3.70573 -0.189415,-0.8505 -0.684451,-1.56321 -0.552424,-2.55643 0.139727,-1.05129 -0.07019,-2.0593 -0.13073,-3.0861 -0.0372,-0.631 -0.338455,-0.96186 -0.827352,-0.71056 -0.981922,0.50461 -1.700874,1.8289 -2.295975,2.60138 -0.657437,0.85331 -1.136121,1.20258 -1.419569,-0.0868 -0.42463,-1.9313 -0.85852,-3.86125 -1.229889,-5.80326 -0.215477,-1.12679 -0.400526,-1.23114 0.620104,-0.73793 1.648592,0.7968 2.277057,1.44685 3.802353,2.23346 2.023481,1.04338 0.327528,-2.52019 0.02223,-3.25409 -0.39661,-0.9534 0.339064,-2.22329 -0.04651,-3.31658 -0.352928,-1.00089 -0.926148,-2.29819 -0.872279,-3.0608 0.0994,-1.4074 0.46744,-1.66402 -0.221694,-2.97241 -0.657966,-1.2492 -1.444546,0.31435 -2.086187,0.81235 -1.241134,0.96319 -2.479542,3.68631 -2.795693,1.665 -0.188013,-1.20208 -0.382667,-2.40237 -0.444923,-3.60908 -0.06821,-1.32098 0.0061,-2.64631 -0.348298,-5.39451 -0.353854,-2.7482 1.2954,-0.80555 2.765716,0.66715 1.132734,1.13461 1.032933,2.15897 2.467557,2.83808 1.783477,0.84428 0.582904,-2.26261 0.276463,-3.68091 -0.316627,-1.46521 -0.01614,-1.44309 0.300752,-2.7001 0.337476,-1.3385 -0.79121,-2.97675 -1.079526,-4.96094 -0.12536,-0.86281 -0.107739,-1.56657 -0.594281,-2.15077 -2.359977,-2.8339 -2.095765,1.95376 -3.304699,3.35896 -1.654995,1.9236 -1.209569,-0.31186 -1.473305,-1.72238 -0.351023,-1.87748 -0.785257,-3.62106 -1.016477,-5.37176 -0.337185,-2.55309 -2.403977,-6.44297 0.101812,-4.07106 0.986102,0.9334 2.014749,1.84766 3.07631,2.74762 0.49665,0.42111 1.335696,0.46191 1.561651,0.0336 0.559884,-1.0609 0.201771,-2.35146 -0.278527,-3.53777 -0.408782,-1.00949 -1.060186,-2.11212 -0.948267,-3.07112 0.163592,-1.40171 -0.0029,-3.0433 -0.835104,-4.3243 -0.91821,-1.41428 -0.682467,-2.5636 -1.415918,-3.99251 -0.730806,-1.4237 -1.219623,0.49501 -1.42576,1.2423 -0.401744,1.4565 -0.224182,2.45221 -1.020604,3.77909 -1.670367,2.78292 -1.64047,0.90297 -2.386938,-1.3477 -0.444183,-1.33933 -0.838148,-2.69293 -1.147234,-4.06953 -0.440161,-1.9607 -0.467995,-3.98362 -0.590126,-5.99343 -0.09782,-1.61012 1.978871,0.99259 2.585878,1.5167 0.947896,0.81838 1.839066,1.73091 3.152775,2.31201 0.634709,0.26339 1.251823,-0.14766 1.141016,-0.57208 -0.129461,-1.45066 -1.28524,-2.7972 -1.150832,-4.95678 0.134435,-2.15972 0.206878,-2.96344 -0.237702,-3.68144 -0.992108,-1.60211 -0.3284,-3.41514 -1.064551,-4.91805 -1.059709,-2.1635 -2.734759,1.47979 -2.934176,1.8769 -2.182997,4.3471 -1.90791,1.58604 -1.952863,-1.07384 -0.02709,-1.6007 0.146738,-3.27813 -0.470244,-4.79454 -0.396557,-0.9748 -0.944747,-1.98856 -1.910477,-1.65055 -1.097042,0.38399 -1.84277,2.63393 -8.034125,1.58491 -2.541852,-0.43069 -5.21253,0.23407 -7.648125,1.14876 -1.051719,0.395 -1.967495,1.08506 -2.66237,1.97406 -2.059755,2.6353 -6.968781,9.31249 -12.200811,10.38799 -7.67162,1.577 -12.8838585,13.28653 -10.479458,-1.54617 0.45429,-2.80249 -0.709533,-6.38379 2.123917,-11.40497 3.58177,-5.29489 10.739781,-4.86548 16.05481,-5.43946 5.862876,-0.63315 11.357531,-1.12049 16.976752,-1.14774 z m 102.792688,0 v 0 c 5.61922,0.0273 11.11387,0.51454 16.97675,1.14774 5.31503,0.5739 12.47307,0.14457 16.05484,5.43946 2.83345,5.02121 1.6696,8.6025 2.12389,11.405 2.4044,14.8327 -2.80784,3.12316 -10.47946,1.54614 -5.23203,-1.07548 -10.14106,-7.75269 -12.20081,-10.38799 -0.69488,-0.889 -1.61065,-1.57903 -2.66237,-1.97403 -2.4356,-0.91469 -5.10627,-1.57938 -7.6481,-1.14877 -6.19138,1.0491 -6.93711,-1.20091 -8.03415,-1.5849 -0.96573,-0.33801 -1.51392,0.67574 -1.91048,1.65052 -0.61698,1.51641 -0.44315,3.19384 -0.47024,4.79454 -0.045,2.65991 0.23013,5.42094 -1.95287,1.07384 -0.19941,-0.39719 -1.87446,-4.04037 -2.93417,-1.87688 -0.73615,1.50289 -0.0724,3.31595 -1.06455,4.91805 -0.44458,0.718 -0.37214,1.52173 -0.2377,3.68142 0.1344,2.1596 -1.02138,3.50609 -1.15084,4.95681 -0.1108,0.42449 0.50631,0.83544 1.14102,0.57205 1.31371,-0.5811 2.20488,-1.4936 3.15277,-2.31201 0.60701,-0.52408 2.6837,-3.12679 2.58588,-1.5167 -0.12213,2.00981 -0.14996,4.03273 -0.59012,5.99345 -0.30909,1.3766 -0.70303,2.73011 -1.14724,4.06951 -0.74644,2.25059 -0.71657,4.13062 -2.38691,1.34773 -0.79645,-1.32691 -0.61886,-2.32262 -1.02063,-3.7791 -0.20611,-0.74731 -0.69493,-2.66602 -1.42573,-1.24232 -0.73345,1.42891 -0.49774,2.57823 -1.41595,3.99253 -0.83211,1.28101 -0.99867,2.92259 -0.8351,4.32428 0.11192,0.959 -0.53946,2.06163 -0.94824,3.07115 -0.4803,1.18628 -0.83844,2.47687 -0.27855,3.53777 0.22595,0.42788 1.065,0.38698 1.56167,-0.0341 1.06156,-0.89998 2.09018,-1.81423 3.07629,-2.74762 2.50579,-2.37202 0.43899,1.51796 0.10181,4.07106 -0.23122,1.7507 -0.66546,3.49427 -1.01648,5.37176 -0.26374,1.41052 0.18169,3.64598 -1.4733,1.72238 -1.20894,-1.4052 -0.94473,-6.19286 -3.3047,-3.35896 -0.48655,0.5842 -0.46892,1.28796 -0.59428,2.15077 -0.28832,1.98419 -1.41701,3.62244 -1.07953,4.96094 0.31694,1.257 0.6174,1.23489 0.30075,2.7001 -0.30644,1.41829 -1.50699,4.52519 0.27649,3.6809 1.43462,-0.6791 1.33482,-1.70346 2.46753,-2.83807 1.47034,-1.4727 3.11957,-3.41535 2.76574,-0.66715 -0.3543,2.7482 -0.28011,4.07352 -0.34829,5.39451 -0.0623,1.20671 -0.25694,2.40699 -0.44495,3.60907 -0.31615,2.02131 -1.55456,-0.7018 -2.7957,-1.66499 -0.64164,-0.498 -1.42822,-2.06156 -2.08618,-0.81235 -0.68914,1.30839 -0.32108,1.56501 -0.22167,2.97241 0.0539,0.7626 -0.5194,2.05991 -0.87231,3.0608 -0.38557,1.09329 0.3501,2.36318 -0.0465,3.31658 -0.30533,0.7339 -2.00126,4.29747 0.0222,3.25408 1.52529,-0.7866 2.15376,-1.43666 3.80235,-2.23345 1.02063,-0.49321 0.83558,-0.38886 0.6201,0.73792 -0.37134,1.94202 -0.80526,3.87197 -1.22989,5.80327 -0.28344,1.2896 -0.76213,0.94022 -1.41954,0.0868 -0.5951,-0.7724 -1.31408,-2.09677 -2.296,-2.60139 -0.4889,-0.2513 -0.79013,0.0796 -0.82733,0.71057 -0.0605,1.02679 -0.27048,2.0348 -0.13075,3.0861 0.13202,0.99322 -0.36301,1.70593 -0.55243,2.55643 -0.27212,1.22182 0.33745,2.54762 -0.44854,3.70573 -0.78558,1.15739 -1.87302,3.14785 -0.83715,3.10885 1.11559,-0.0424 2.62919,-0.78756 3.82665,-1.67277 1.80845,-1.33689 1.50921,-1.4519 1.21697,0.46251 -0.36816,2.41189 -0.70694,4.82735 -1.13688,7.23004 -0.19442,1.086 -0.0851,1.5214 -0.82632,0.0372 -0.54788,-1.09691 -1.21786,-2.14323 -2.19367,-3.06443 -0.39637,-0.3742 -0.95673,-0.86497 -1.0573,0.81132 -0.10056,1.67621 -0.17322,3.48218 -1.25055,5.17488 -0.45797,0.71951 -0.77695,1.47299 -0.60825,2.23139 0.28768,1.2932 0.0445,2.61628 -0.66868,3.93827 -0.52742,0.97761 -1.34607,1.90902 -1.6981,2.90782 -0.16383,0.46472 0.68342,0.55301 1.20666,0.29869 1.92678,-0.9366 3.55209,-2.12347 4.99608,-3.37756 1.35167,-1.17391 1.22118,-0.95404 1.24229,1.38596 0.0111,1.2387 0.20508,2.48145 -0.3421,3.66697 -0.54298,1.1766 -1.82936,1.75903 -2.98379,2.18022 -0.95086,0.34679 -1.90108,0.77893 -2.56212,1.56993 -1.35284,1.61891 -1.80155,3.76163 -2.07068,5.79602 -0.48895,3.6962 -0.21569,7.44487 -0.62426,11.13628 -0.25297,2.28571 -0.99118,4.46881 -1.97247,6.54481 -1.10521,2.33821 -2.57902,4.6277 -7.74837,5.59139 -5.16938,0.96372 -2.53627,-1.22412 -4.16719,-6.60061 -1.79149,-5.90582 4.2509,-6.17048 6.02962,-10.83138 1.75156,-4.58991 -5.09286,-6.02922 -4.58526,-13.65912 0.50758,-7.63 7.72941,-5.62128 5.51905,-13.09378 -1.1063,-3.73999 -4.96131,-4.52715 -5.03071,-8.25635 -0.12784,-6.86728 7.10539,-6.8018 9.24648,-13.0607 1.76704,-5.16538 -6.3082,-8.15065 -6.11386,-12.77853 0.47715,-11.36261 9.85948,-7.18505 10.02109,-15.66315 0.12036,-6.31229 -9.07849,-4.51411 -7.8667,-10.42881 1.21182,-5.91461 8.09953,-5.78851 10.6221,-7.78349 1.15932,-0.91691 2.46533,-1.9141 2.83342,-3.4303 0.41077,-1.69209 0.82947,-4.12194 -1.5906,-6.65384 -2.8431,-2.97442 -0.78112,-4.64479 -0.0873,-5.6777 1.008,-1.50079 2.40995,-2.66806 2.47115,-3.51554 0.0613,-0.84651 -2.81183,-1.22823 -3.72533,-0.81754 -3.8616,1.73641 -7.34962,4.21122 -10.54304,6.98201 -1.11988,0.97171 -2.22919,1.98824 -2.73214,1.57046 -0.50292,-0.4178 -0.003,-1.36863 -0.0558,-2.39884 -0.0342,-0.6594 -0.68437,-1.02262 -1.29141,-1.05162 -1.1371,-0.0544 -2.33965,0.16598 -3.41992,-0.35242 -1.65015,-0.792 -0.42995,-1.56535 5.3268,-4.36975 5.75678,-2.8044 12.92495,-5.71577 20.17705,-8.39536 3.03308,-1.1207 6.65234,-2.82774 14.32832,-3.24734 1.919,-0.10501 3.80566,-0.14798 5.67873,-0.13798 z m 24.42072,27.98538 c 0.36875,0.23429 0.62381,3.39465 2.02314,4.69685 2.33124,2.1694 3.58,4.13097 6.58979,4.25297 5.23727,0.21241 4.6422,0.37901 7.14478,5.02811 3.08621,5.73331 5.03952,9.66182 7.71374,15.52983 1.37224,3.01119 2.33937,6.23382 1.29035,8.26201 -1.04899,2.02811 -2.63911,3.9175 -3.58322,7.07141 -0.79248,2.6475 0.17997,5.46304 -1.0568,7.77523 -1.23677,2.3122 -4.48638,7.39987 -3.58376,12.19616 0.51755,2.75029 1.60668,5.37284 -0.33485,6.87866 -1.9416,1.5058 -5.77311,3.12759 -7.28226,6.5164 -1.47839,3.31978 -0.98111,7.1588 -0.80563,13.2307 0.17547,6.07182 -4.22331,7.68604 -4.68551,11.99203 -0.29988,2.79442 -0.1392,5.62911 -2.28563,7.22902 -2.14643,1.60002 -5.67822,4.36608 -7.00164,8.09099 -1.60459,4.5162 -1.743,9.32156 -3.49851,13.95986 -1.75551,4.63831 -4.983,1.69064 -8.91571,3.68194 -3.93275,1.99142 -4.74274,4.11301 -5.26791,6.0756 -1.01635,3.79831 0.73737,2.22917 -8.21759,7.03316 -8.95498,4.80401 -10.75838,2.47272 -12.94289,-1.55027 -0.8541,-1.57293 -2.87906,-4.22204 -3.83696,-5.76194 -1.64719,-2.64779 -3.90594,-5.16387 -7.01818,-6.05957 -4.5,-1.2949 -8.99025,-2.64819 -13.58056,-3.60857 -0.69995,-0.14645 -2.59408,-0.40098 -6.904272,-0.40177 -4.310195,0 -5.559663,0.21262 -6.458797,0.40074 -4.590309,0.96038 -9.080579,2.31367 -13.580586,3.60857 -3.11224,0.89569 -5.370988,3.41178 -7.018178,6.05957 -0.957898,1.5399 -2.98286,4.18901 -3.836961,5.76193 -2.184506,4.02299 -3.987906,6.35429 -12.942888,1.55028 -8.954955,-4.80399 -7.201243,-3.23485 -8.217587,-7.03316 -0.525172,-1.9626 -1.335141,-4.08418 -5.267881,-6.0756 -3.93274,-1.9913 -7.160233,0.95637 -8.915744,-3.68194 -1.75551,-4.6383 -1.893914,-9.44367 -3.498506,-13.95987 -1.323419,-3.72491 -4.85521,-6.49107 -7.001616,-8.09098 -2.146432,-1.59991 -1.98575,-4.43463 -2.285656,-7.22903 -0.462174,-4.30598 -4.860977,-5.92021 -4.685506,-11.99202 0.175472,-6.0719 0.672756,-9.91092 -0.80563,-13.2307 -1.509156,-3.38881 -5.340667,-5.0106 -7.2822589,-6.51643 -1.9415389,-1.50577 -0.8524081,-4.12834 -0.3348566,-6.87863 0.902626,-4.79629 -2.3469864,-9.88396 -3.5837548,-12.19616 -1.2367683,-2.31219 -0.2642922,-5.12773 -1.0567722,-7.77523 -0.94411274,-3.15391 -2.5342585,-5.0433 -3.5832521,-7.07141 -1.0489935,-2.02819 -0.081941,-5.25082 1.29034646,-8.26201 2.67422314,-5.86801 4.62753594,-9.79652 7.71374174,-15.52983 2.5025879,-4.6491 1.9075136,-4.81571 7.1447814,-5.02811 3.009795,-0.122 4.258548,-2.08357 6.589792,-4.25297 2.035413,-1.8941 1.650101,-7.71932 2.714572,-2.75331 0.228177,1.0645 1.538235,3.80815 -1.286245,6.58305 -2.824454,2.77482 -3.992245,3.97544 -9.196335,7.47604 -5.2040891,3.5006 -7.450481,6.91642 -7.9798593,16.39641 -0.5294048,9.47989 1.8321867,11.35637 3.6917577,18.24488 1.8595446,6.8885 2.7669596,12.23989 4.0198936,16.29719 1.252961,4.0572 4.082997,6.74696 5.445152,10.05986 1.360672,3.30941 0.929163,7.02958 2.316136,12.85348 1.386972,5.8239 3.317637,10.52621 6.379474,16.07913 3.061811,5.55278 4.975622,9.14469 12.495345,18.43659 7.045034,8.70521 5.917723,12.46626 13.880306,17.58447 12.35374,7.94075 9.949682,-8.29717 27.408663,-10.09139 9.290447,-0.95478 12.595357,-2.60583 16.818081,-10.01004 0.470694,-0.82531 1.747044,-1.22364 2.176833,-0.14483 3.390637,8.51101 9.040517,9.23343 16.908967,10.15592 17.43154,2.04367 15.05492,18.03218 27.40866,10.0914 7.96258,-5.11821 6.83525,-8.87926 13.88028,-17.58447 7.51972,-9.29191 9.43356,-12.88381 12.49537,-18.43659 3.06184,-5.55292 4.99248,-10.25523 6.37945,-16.07913 1.38697,-5.8239 0.95546,-9.54408 2.31614,-12.85348 1.36215,-3.31291 4.19219,-6.00266 5.44515,-10.05986 1.25293,-4.05728 2.16037,-9.40869 4.01989,-16.2972 1.85957,-6.88847 4.22116,-8.76498 3.69179,-18.24487 -0.52938,-9.47999 -2.7758,-12.89582 -7.97989,-16.39641 -5.20409,-3.5006 -6.37188,-4.70122 -9.19634,-7.47604 -2.82448,-2.7749 -1.51442,-5.51855 -1.28621,-6.58305 0.33263,-1.55188 0.52382,-2.05004 0.6914,-1.94355 z"
       sodipodi:nodetypes="scssssssscssssssssssssssssssssscccssssssssscsscsscsssscssssssssccsssssscsssssssscsscsssssssscssssssssscsssssscsssscsssssscssssssssscsssssssscssccssssssscsssssscccssssssscssssccscsscsssssssscsccscssssssssssssssssssscssssssssssssssssssssssssssssssssssssssssssssssssssssssssssssssssssscssssssssssscscsssssssssssssssssssssssssssssssssssssssssscsssscssssssssssssssssssssssssssssssssssssssssssssssssssssssssssssssssssssssssssssssssssssssssssssssssssssssssssssssscssssssssssssssssscsssssssssssssscsssssssccsssssssssssscssccssssssssssssssccssssssscsssssssssssssscssssssssssssssssscsssssssssssssssssssssssssssssssssscsssssssscssssssssssssssssssssssccscssssssssssssssssssssssssssssssssssccsssssssssssssscsssssccss" />
  </g>
</svg>
